<mxfile host="app.diagrams.net" agent="Mozilla/5.0 (Macintosh; Intel Mac OS X 10_15_7) AppleWebKit/537.36 (KHTML, like Gecko) Chrome/134.0.0.0 Safari/537.36" version="26.0.16">
  <diagram name="Сторінка-1" id="zqAYHW1kqLVXzYHTF5ff">
    <mxGraphModel grid="1" page="1" gridSize="10" guides="1" tooltips="1" connect="1" arrows="1" fold="1" pageScale="1" pageWidth="827" pageHeight="1169" math="0" shadow="0">
      <root>
        <mxCell id="0" />
        <mxCell id="1" parent="0" />
        <mxCell id="hvUAEzdRsmr1ENnGM5eB-2" value="" style="rounded=0;whiteSpace=wrap;html=1;fillColor=none;dashed=1;" vertex="1" parent="1">
          <mxGeometry x="160" y="200" width="120" height="300" as="geometry" />
        </mxCell>
        <mxCell id="hvUAEzdRsmr1ENnGM5eB-4" value="Sources" style="rounded=0;whiteSpace=wrap;html=1;strokeColor=none;" vertex="1" parent="1">
          <mxGeometry x="185" y="180" width="70" height="40" as="geometry" />
        </mxCell>
        <mxCell id="hvUAEzdRsmr1ENnGM5eB-19" value="" style="edgeStyle=orthogonalEdgeStyle;rounded=0;orthogonalLoop=1;jettySize=auto;html=1;exitX=0.946;exitY=0.675;exitDx=0;exitDy=0;exitPerimeter=0;" edge="1" parent="1" source="hvUAEzdRsmr1ENnGM5eB-5" target="hvUAEzdRsmr1ENnGM5eB-13">
          <mxGeometry relative="1" as="geometry">
            <mxPoint x="245" y="292" as="sourcePoint" />
            <Array as="points">
              <mxPoint x="242" y="300" />
              <mxPoint x="290" y="300" />
              <mxPoint x="290" y="330" />
            </Array>
          </mxGeometry>
        </mxCell>
        <mxCell id="hvUAEzdRsmr1ENnGM5eB-20" style="edgeStyle=orthogonalEdgeStyle;rounded=0;orthogonalLoop=1;jettySize=auto;html=1;entryX=0;entryY=0.5;entryDx=0;entryDy=0;" edge="1" parent="1" source="hvUAEzdRsmr1ENnGM5eB-5" target="hvUAEzdRsmr1ENnGM5eB-11">
          <mxGeometry relative="1" as="geometry">
            <Array as="points">
              <mxPoint x="290" y="300" />
              <mxPoint x="290" y="270" />
            </Array>
          </mxGeometry>
        </mxCell>
        <mxCell id="hvUAEzdRsmr1ENnGM5eB-21" style="edgeStyle=orthogonalEdgeStyle;rounded=0;orthogonalLoop=1;jettySize=auto;html=1;entryX=0;entryY=0.5;entryDx=0;entryDy=0;" edge="1" parent="1" source="hvUAEzdRsmr1ENnGM5eB-5" target="hvUAEzdRsmr1ENnGM5eB-12">
          <mxGeometry relative="1" as="geometry" />
        </mxCell>
        <mxCell id="hvUAEzdRsmr1ENnGM5eB-5" value="" style="image;aspect=fixed;html=1;points=[];align=center;fontSize=12;image=img/lib/azure2/general/Folder_Blank.svg;" vertex="1" parent="1">
          <mxGeometry x="195.35000000000002" y="280" width="49.29" height="40" as="geometry" />
        </mxCell>
        <mxCell id="hvUAEzdRsmr1ENnGM5eB-6" value="CRM" style="text;html=1;align=center;verticalAlign=middle;whiteSpace=wrap;rounded=0;fontStyle=1" vertex="1" parent="1">
          <mxGeometry x="190" y="320" width="60" height="30" as="geometry" />
        </mxCell>
        <mxCell id="hvUAEzdRsmr1ENnGM5eB-28" style="edgeStyle=orthogonalEdgeStyle;rounded=0;orthogonalLoop=1;jettySize=auto;html=1;entryX=0;entryY=0.5;entryDx=0;entryDy=0;" edge="1" parent="1" source="hvUAEzdRsmr1ENnGM5eB-7" target="hvUAEzdRsmr1ENnGM5eB-14">
          <mxGeometry relative="1" as="geometry">
            <Array as="points">
              <mxPoint x="290" y="410" />
              <mxPoint x="290" y="380" />
            </Array>
          </mxGeometry>
        </mxCell>
        <mxCell id="hvUAEzdRsmr1ENnGM5eB-29" style="edgeStyle=orthogonalEdgeStyle;rounded=0;orthogonalLoop=1;jettySize=auto;html=1;entryX=0;entryY=0.5;entryDx=0;entryDy=0;" edge="1" parent="1" source="hvUAEzdRsmr1ENnGM5eB-7" target="hvUAEzdRsmr1ENnGM5eB-15">
          <mxGeometry relative="1" as="geometry" />
        </mxCell>
        <mxCell id="hvUAEzdRsmr1ENnGM5eB-30" style="edgeStyle=orthogonalEdgeStyle;rounded=0;orthogonalLoop=1;jettySize=auto;html=1;entryX=0;entryY=0.5;entryDx=0;entryDy=0;" edge="1" parent="1" source="hvUAEzdRsmr1ENnGM5eB-7" target="hvUAEzdRsmr1ENnGM5eB-16">
          <mxGeometry relative="1" as="geometry">
            <Array as="points">
              <mxPoint x="290" y="410" />
              <mxPoint x="290" y="440" />
            </Array>
          </mxGeometry>
        </mxCell>
        <mxCell id="hvUAEzdRsmr1ENnGM5eB-7" value="" style="image;aspect=fixed;html=1;points=[];align=center;fontSize=12;image=img/lib/azure2/general/Folder_Blank.svg;" vertex="1" parent="1">
          <mxGeometry x="195.36" y="390" width="49.29" height="40" as="geometry" />
        </mxCell>
        <mxCell id="hvUAEzdRsmr1ENnGM5eB-8" value="ERP" style="text;html=1;align=center;verticalAlign=middle;whiteSpace=wrap;rounded=0;fontStyle=1" vertex="1" parent="1">
          <mxGeometry x="190" y="430" width="60" height="30" as="geometry" />
        </mxCell>
        <mxCell id="hvUAEzdRsmr1ENnGM5eB-9" value="" style="rounded=1;whiteSpace=wrap;html=1;fillColor=none;strokeColor=#d79b00;gradientColor=none;fillStyle=cross-hatch;" vertex="1" parent="1">
          <mxGeometry x="320" y="240" width="120" height="260" as="geometry" />
        </mxCell>
        <mxCell id="hvUAEzdRsmr1ENnGM5eB-10" value="&lt;b&gt;Bronze Layer&lt;/b&gt;" style="rounded=1;whiteSpace=wrap;html=1;fillColor=#ffe6cc;strokeColor=#d79b00;" vertex="1" parent="1">
          <mxGeometry x="320" y="200" width="120" height="30" as="geometry" />
        </mxCell>
        <mxCell id="hvUAEzdRsmr1ENnGM5eB-41" style="edgeStyle=orthogonalEdgeStyle;rounded=0;orthogonalLoop=1;jettySize=auto;html=1;exitX=1;exitY=0.5;exitDx=0;exitDy=0;entryX=0;entryY=0.5;entryDx=0;entryDy=0;" edge="1" parent="1" source="hvUAEzdRsmr1ENnGM5eB-11" target="hvUAEzdRsmr1ENnGM5eB-33">
          <mxGeometry relative="1" as="geometry" />
        </mxCell>
        <mxCell id="hvUAEzdRsmr1ENnGM5eB-11" value="crm_sales_details" style="rounded=1;whiteSpace=wrap;html=1;fillColor=#ffe6cc;strokeColor=#d79b00;" vertex="1" parent="1">
          <mxGeometry x="330" y="260" width="100" height="20" as="geometry" />
        </mxCell>
        <mxCell id="hvUAEzdRsmr1ENnGM5eB-42" style="edgeStyle=orthogonalEdgeStyle;rounded=0;orthogonalLoop=1;jettySize=auto;html=1;exitX=1;exitY=0.5;exitDx=0;exitDy=0;entryX=0;entryY=0.5;entryDx=0;entryDy=0;" edge="1" parent="1" source="hvUAEzdRsmr1ENnGM5eB-12" target="hvUAEzdRsmr1ENnGM5eB-34">
          <mxGeometry relative="1" as="geometry" />
        </mxCell>
        <mxCell id="hvUAEzdRsmr1ENnGM5eB-12" value="crm_cust_info" style="rounded=1;whiteSpace=wrap;html=1;fillColor=#ffe6cc;strokeColor=#d79b00;" vertex="1" parent="1">
          <mxGeometry x="330" y="290" width="100" height="20" as="geometry" />
        </mxCell>
        <mxCell id="hvUAEzdRsmr1ENnGM5eB-43" style="edgeStyle=orthogonalEdgeStyle;rounded=0;orthogonalLoop=1;jettySize=auto;html=1;exitX=1;exitY=0.5;exitDx=0;exitDy=0;" edge="1" parent="1" source="hvUAEzdRsmr1ENnGM5eB-13" target="hvUAEzdRsmr1ENnGM5eB-35">
          <mxGeometry relative="1" as="geometry" />
        </mxCell>
        <mxCell id="hvUAEzdRsmr1ENnGM5eB-13" value="crm_prd_info" style="rounded=1;whiteSpace=wrap;html=1;fillColor=#ffe6cc;strokeColor=#d79b00;" vertex="1" parent="1">
          <mxGeometry x="330" y="320" width="100" height="20" as="geometry" />
        </mxCell>
        <mxCell id="hvUAEzdRsmr1ENnGM5eB-44" style="edgeStyle=orthogonalEdgeStyle;rounded=0;orthogonalLoop=1;jettySize=auto;html=1;exitX=1;exitY=0.5;exitDx=0;exitDy=0;entryX=0;entryY=0.5;entryDx=0;entryDy=0;" edge="1" parent="1" source="hvUAEzdRsmr1ENnGM5eB-14" target="hvUAEzdRsmr1ENnGM5eB-36">
          <mxGeometry relative="1" as="geometry" />
        </mxCell>
        <mxCell id="hvUAEzdRsmr1ENnGM5eB-14" value="erp_cust_az12" style="rounded=1;whiteSpace=wrap;html=1;fillColor=#ffe6cc;strokeColor=#d79b00;" vertex="1" parent="1">
          <mxGeometry x="330" y="370" width="100" height="20" as="geometry" />
        </mxCell>
        <mxCell id="hvUAEzdRsmr1ENnGM5eB-45" style="edgeStyle=orthogonalEdgeStyle;rounded=0;orthogonalLoop=1;jettySize=auto;html=1;exitX=1;exitY=0.5;exitDx=0;exitDy=0;" edge="1" parent="1" source="hvUAEzdRsmr1ENnGM5eB-15" target="hvUAEzdRsmr1ENnGM5eB-37">
          <mxGeometry relative="1" as="geometry" />
        </mxCell>
        <mxCell id="hvUAEzdRsmr1ENnGM5eB-15" value="erp_loc_a101" style="rounded=1;whiteSpace=wrap;html=1;fillColor=#ffe6cc;strokeColor=#d79b00;" vertex="1" parent="1">
          <mxGeometry x="330" y="400" width="100" height="20" as="geometry" />
        </mxCell>
        <mxCell id="hvUAEzdRsmr1ENnGM5eB-46" style="edgeStyle=orthogonalEdgeStyle;rounded=0;orthogonalLoop=1;jettySize=auto;html=1;exitX=1;exitY=0.5;exitDx=0;exitDy=0;entryX=0;entryY=0.5;entryDx=0;entryDy=0;" edge="1" parent="1" source="hvUAEzdRsmr1ENnGM5eB-16" target="hvUAEzdRsmr1ENnGM5eB-38">
          <mxGeometry relative="1" as="geometry" />
        </mxCell>
        <mxCell id="hvUAEzdRsmr1ENnGM5eB-16" value="erp_px_cat_g1v2" style="rounded=1;whiteSpace=wrap;html=1;fillColor=#ffe6cc;strokeColor=#d79b00;" vertex="1" parent="1">
          <mxGeometry x="330" y="430" width="100" height="20" as="geometry" />
        </mxCell>
        <mxCell id="hvUAEzdRsmr1ENnGM5eB-31" value="" style="rounded=1;whiteSpace=wrap;html=1;fillColor=none;strokeColor=#666666;fontColor=#333333;" vertex="1" parent="1">
          <mxGeometry x="480" y="240" width="120" height="260" as="geometry" />
        </mxCell>
        <mxCell id="hvUAEzdRsmr1ENnGM5eB-32" value="&lt;b&gt;Silver Layer&lt;/b&gt;" style="rounded=1;whiteSpace=wrap;html=1;fillColor=#f5f5f5;strokeColor=#666666;fontColor=#333333;" vertex="1" parent="1">
          <mxGeometry x="480" y="200" width="120" height="30" as="geometry" />
        </mxCell>
        <mxCell id="hvUAEzdRsmr1ENnGM5eB-55" style="edgeStyle=orthogonalEdgeStyle;rounded=0;orthogonalLoop=1;jettySize=auto;html=1;entryX=0;entryY=0.5;entryDx=0;entryDy=0;" edge="1" parent="1" source="hvUAEzdRsmr1ENnGM5eB-33" target="hvUAEzdRsmr1ENnGM5eB-49">
          <mxGeometry relative="1" as="geometry" />
        </mxCell>
        <mxCell id="hvUAEzdRsmr1ENnGM5eB-33" value="crm_sales_details" style="rounded=1;whiteSpace=wrap;html=1;fillColor=#f5f5f5;strokeColor=#666666;fontColor=#333333;" vertex="1" parent="1">
          <mxGeometry x="490" y="260" width="100" height="20" as="geometry" />
        </mxCell>
        <mxCell id="hvUAEzdRsmr1ENnGM5eB-56" style="edgeStyle=orthogonalEdgeStyle;rounded=0;orthogonalLoop=1;jettySize=auto;html=1;entryX=0;entryY=0.5;entryDx=0;entryDy=0;" edge="1" parent="1" source="hvUAEzdRsmr1ENnGM5eB-34" target="hvUAEzdRsmr1ENnGM5eB-50">
          <mxGeometry relative="1" as="geometry" />
        </mxCell>
        <mxCell id="hvUAEzdRsmr1ENnGM5eB-34" value="crm_cust_info" style="rounded=1;whiteSpace=wrap;html=1;fillColor=#f5f5f5;strokeColor=#666666;fontColor=#333333;" vertex="1" parent="1">
          <mxGeometry x="490" y="290" width="100" height="20" as="geometry" />
        </mxCell>
        <mxCell id="hvUAEzdRsmr1ENnGM5eB-59" style="edgeStyle=orthogonalEdgeStyle;rounded=0;orthogonalLoop=1;jettySize=auto;html=1;exitX=1;exitY=0.5;exitDx=0;exitDy=0;entryX=0;entryY=0.5;entryDx=0;entryDy=0;" edge="1" parent="1" source="hvUAEzdRsmr1ENnGM5eB-35" target="hvUAEzdRsmr1ENnGM5eB-51">
          <mxGeometry relative="1" as="geometry">
            <Array as="points">
              <mxPoint x="630" y="330" />
              <mxPoint x="630" y="440" />
            </Array>
          </mxGeometry>
        </mxCell>
        <mxCell id="hvUAEzdRsmr1ENnGM5eB-35" value="crm_prd_info" style="rounded=1;whiteSpace=wrap;html=1;fillColor=#f5f5f5;strokeColor=#666666;fontColor=#333333;" vertex="1" parent="1">
          <mxGeometry x="490" y="320" width="100" height="20" as="geometry" />
        </mxCell>
        <mxCell id="hvUAEzdRsmr1ENnGM5eB-57" style="edgeStyle=orthogonalEdgeStyle;rounded=0;orthogonalLoop=1;jettySize=auto;html=1;exitX=1;exitY=0.5;exitDx=0;exitDy=0;" edge="1" parent="1" source="hvUAEzdRsmr1ENnGM5eB-36" target="hvUAEzdRsmr1ENnGM5eB-50">
          <mxGeometry relative="1" as="geometry" />
        </mxCell>
        <mxCell id="hvUAEzdRsmr1ENnGM5eB-36" value="erp_cust_az12" style="rounded=1;whiteSpace=wrap;html=1;fillColor=#f5f5f5;strokeColor=#666666;fontColor=#333333;" vertex="1" parent="1">
          <mxGeometry x="490" y="370" width="100" height="20" as="geometry" />
        </mxCell>
        <mxCell id="hvUAEzdRsmr1ENnGM5eB-58" style="edgeStyle=orthogonalEdgeStyle;rounded=0;orthogonalLoop=1;jettySize=auto;html=1;exitX=1;exitY=0.5;exitDx=0;exitDy=0;entryX=0;entryY=0.5;entryDx=0;entryDy=0;" edge="1" parent="1" source="hvUAEzdRsmr1ENnGM5eB-37" target="hvUAEzdRsmr1ENnGM5eB-50">
          <mxGeometry relative="1" as="geometry" />
        </mxCell>
        <mxCell id="hvUAEzdRsmr1ENnGM5eB-37" value="erp_loc_a101" style="rounded=1;whiteSpace=wrap;html=1;fillColor=#f5f5f5;strokeColor=#666666;fontColor=#333333;" vertex="1" parent="1">
          <mxGeometry x="490" y="400" width="100" height="20" as="geometry" />
        </mxCell>
        <mxCell id="hvUAEzdRsmr1ENnGM5eB-60" style="edgeStyle=orthogonalEdgeStyle;rounded=0;orthogonalLoop=1;jettySize=auto;html=1;exitX=1;exitY=0.5;exitDx=0;exitDy=0;" edge="1" parent="1" source="hvUAEzdRsmr1ENnGM5eB-38">
          <mxGeometry relative="1" as="geometry">
            <mxPoint x="650" y="440" as="targetPoint" />
          </mxGeometry>
        </mxCell>
        <mxCell id="hvUAEzdRsmr1ENnGM5eB-38" value="erp_px_cat_g1v2" style="rounded=1;whiteSpace=wrap;html=1;fillColor=#f5f5f5;strokeColor=#666666;fontColor=#333333;" vertex="1" parent="1">
          <mxGeometry x="490" y="430" width="100" height="20" as="geometry" />
        </mxCell>
        <mxCell id="hvUAEzdRsmr1ENnGM5eB-47" value="" style="rounded=1;whiteSpace=wrap;html=1;fillColor=none;strokeColor=#d6b656;" vertex="1" parent="1">
          <mxGeometry x="640" y="240" width="120" height="260" as="geometry" />
        </mxCell>
        <mxCell id="hvUAEzdRsmr1ENnGM5eB-48" value="&lt;b&gt;Gold Layer&lt;/b&gt;" style="rounded=1;whiteSpace=wrap;html=1;fillColor=#fff2cc;strokeColor=#d6b656;" vertex="1" parent="1">
          <mxGeometry x="640" y="200" width="120" height="30" as="geometry" />
        </mxCell>
        <mxCell id="hvUAEzdRsmr1ENnGM5eB-49" value="fact_sales" style="rounded=1;whiteSpace=wrap;html=1;fillColor=#fff2cc;strokeColor=#d6b656;" vertex="1" parent="1">
          <mxGeometry x="650" y="260" width="100" height="40" as="geometry" />
        </mxCell>
        <mxCell id="hvUAEzdRsmr1ENnGM5eB-50" value="dim_customers" style="rounded=1;whiteSpace=wrap;html=1;fillColor=#fff2cc;strokeColor=#d6b656;" vertex="1" parent="1">
          <mxGeometry x="650" y="340" width="100" height="40" as="geometry" />
        </mxCell>
        <mxCell id="hvUAEzdRsmr1ENnGM5eB-51" value="dim_products" style="rounded=1;whiteSpace=wrap;html=1;fillColor=#fff2cc;strokeColor=#d6b656;" vertex="1" parent="1">
          <mxGeometry x="650" y="420" width="100" height="40" as="geometry" />
        </mxCell>
      </root>
    </mxGraphModel>
  </diagram>
</mxfile>
